<svg width="18" height="13" viewBox="0 0 18 13" fill="none" xmlns="http://www.w3.org/2000/svg">
<path d="M17.6249 2.02977C17.4187 1.23205 16.8088 0.602727 16.0328 0.387046C14.6297 1.61429e-07 9 0 9 0C9 0 3.37321 1.61429e-07 1.96723 0.387046C1.19408 0.599773 0.584155 1.22909 0.375119 2.02977C0 3.4775 0 6.5 0 6.5C0 6.5 0 9.5225 0.375119 10.9702C0.581292 11.768 1.19122 12.3973 1.96723 12.613C3.37321 13 9 13 9 13C9 13 14.6297 13 16.0328 12.613C16.8059 12.4002 17.4158 11.7709 17.6249 10.9702C18 9.5225 18 6.5 18 6.5C18 6.5 18 3.4775 17.6249 2.02977Z" fill="black"/>
<path d="M7.20172 9.28614L11.8778 6.5L7.20172 3.71386V9.28614Z" fill="white"/>
</svg>
